<svg height="3rem" id="Layer_1" data-name="Layer 1" xmlns="http://www.w3.org/2000/svg" viewBox="0 0 559.79 204.18"><defs><style>.cls-1{fill:#fff;}</style></defs><title>Bekk_logot</title><path class="cls-1" d="M44.52,46.94H85.73s34-2.87,34,25.73S90.42,99.12,84.83,99.12L44.3,99.06V86.41H86.36s18.47.85,18.47-13.74c0-14.09-12.49-13.1-18.93-13.1H44.51Z"/><path class="cls-1" d="M114.17,108.56c6.26,3.75,11.9,10.5,11.9,21.56,0,28.59-29.31,27-34.91,27l-46.86,0V144.47H92.39s18.67.25,18.79-14.34c.08-10-6.29-17.66-12.38-21.56Z"/><path class="cls-1" d="M162.75,108.56h17.62v25c0,8.21,4.92,10.9,9.8,10.9h48.16l.07,12.85H180.29c-6,0-17.54-3.91-17.54-20.23Z"/><path class="cls-1" d="M238.45,86.49l-49.82,0c-4.88,0-8.34-.48-8.34-6.07,0-.88,0-13.61.09-14.59,0-5.87,3-6.24,7.9-6.24h50.06V46.94H181.56s-18.81-1.25-18.81,18.86v14c0,18.06,13.48,19.23,19.52,19.23h56.07Z"/><path class="cls-1" d="M364.48,47c-2.65,2.93-27.27,32.35-30.39,35.43-5.2,5.13-14.52,4-22.07,4s-9-5.81-9-9.75,0-26.15,0-29.72H285.48c0,3.76.06,34.58.06,39.47,0,3.88,1.83,12.67,17.44,12.67l30.07,0c3.87,0,9.69-2.35,16.38-10.26,2-2.34,30.56-36.72,35.2-41.83Z"/><path class="cls-1" d="M347.22,116.47c-3.68-4-7-7.91-18.6-7.91H303c-12.83,0-17.39,9.3-17.39,14.19v34.4l17.46-.05c0-3.57,0-25.68,0-29.63s1.16-6.17,8.83-6.17,6.37,0,7.22,0c7.22,0,11.27.26,15,4,3.11,3.09,28.69,28.7,31.63,31.79h20.1C380.93,151.83,349.31,118.72,347.22,116.47Z"/><path class="cls-1" d="M494.12,47c-2.66,2.92-27.27,32.35-30.4,35.43-5.2,5.13-14.52,4-22.07,4s-9-5.81-9-9.75,0-26.15,0-29.72H415.12c0,3.76.06,34.58.06,39.47,0,3.88,1.82,12.67,17.43,12.67l30.08-.05c3.87,0,9.69-2.35,16.38-10.26,2-2.34,30.56-36.72,35.2-41.83Z"/><path class="cls-1" d="M476.86,116.5c-3.68-4-7-7.91-18.61-7.91H432.61c-12.82,0-17.39,9.31-17.39,14.2v34.4l17.47-.05c0-3.57,0-25.68,0-29.63s1.16-6.18,8.83-6.18,6.37,0,7.22,0c7.22-.05,11.27.25,15,4,3.11,3.1,28.68,28.71,31.62,31.8h20.1C510.56,151.87,478.94,118.75,476.86,116.5Z"/></svg>